<?xml version="1.0" standalone="no"?>
<!DOCTYPE svg PUBLIC "-//W3C//DTD SVG 20010904//EN"
 "http://www.w3.org/TR/2001/REC-SVG-20010904/DTD/svg10.dtd">
<svg version="1.0" xmlns="http://www.w3.org/2000/svg"
 width="700.000000pt" height="700.000000pt" viewBox="0 0 700.000000 700.000000"
 preserveAspectRatio="xMidYMid meet">
<metadata>
Created by potrace 1.11, written by Peter Selinger 2001-2013
</metadata>
<g transform="translate(0.000000,700.000000) scale(0.100000,-0.100000)"
fill="#000000" stroke="none">
<path d="M0 3500 l0 -3500 3500 0 3500 0 0 3500 0 3500 -3500 0 -3500 0 0
-3500z m1617 1489 c45 -17 82 -60 98 -113 8 -27 15 -56 15 -63 0 -27 -35 -11
-91 42 -40 38 -66 55 -84 55 -123 0 -251 -236 -329 -610 -53 -249 -57 -424
-13 -511 32 -62 65 -82 142 -87 58 -4 73 -1 128 26 111 55 239 198 318 355 35
68 42 77 67 77 16 0 36 -6 46 -13 15 -11 16 -19 7 -53 -38 -141 -254 -371
-426 -453 -33 -16 -68 -32 -79 -35 -17 -6 -17 -8 -4 -24 42 -47 98 -212 98
-287 l0 -31 -112 -18 c-62 -11 -118 -21 -124 -23 -7 -2 -15 24 -21 70 -15 104
-43 164 -87 182 -108 45 -206 -23 -206 -141 0 -113 32 -158 240 -342 173 -152
243 -229 286 -317 44 -89 58 -167 51 -281 -4 -71 -11 -104 -32 -147 -36 -77
-102 -142 -183 -180 -65 -31 -71 -32 -202 -32 -131 0 -137 1 -202 32 -126 59
-194 159 -223 327 -24 143 -34 129 110 158 l125 25 4 -31 c3 -17 7 -50 11 -73
10 -75 44 -151 80 -179 66 -50 165 -41 207 19 19 27 23 45 23 107 -1 134 -31
177 -299 413 -212 188 -257 258 -272 428 -17 182 60 337 200 403 54 26 151 46
220 46 42 0 42 -4 11 80 -64 170 19 665 160 955 98 201 222 290 342 244z
m3481 -224 c3 -232 -11 -656 -32 -913 -6 -84 -10 -155 -7 -158 2 -2 28 -4 58
-4 l53 0 0 -820 0 -820 -145 0 -145 0 0 103 c0 56 -1 424 -1 817 l0 715 40 3
c35 3 41 6 41 26 0 13 5 82 11 155 l11 132 -242 387 c-200 319 -243 394 -244
425 -1 40 13 57 47 57 30 0 67 -48 142 -185 89 -163 189 -316 247 -380 45 -49
46 -49 51 -25 3 14 13 162 22 330 9 168 18 322 21 343 6 36 8 38 37 35 l32 -3
3 -220z m-1792 -158 c21 -25 22 -35 22 -184 0 -117 7 -204 26 -338 15 -99 29
-228 33 -287 l6 -108 54 0 54 0 -4 -647 c-3 -561 -6 -657 -20 -717 -32 -132
-106 -221 -225 -268 -85 -33 -295 -38 -390 -9 -116 35 -189 96 -233 195 -43
98 -49 203 -49 844 l0 602 96 0 c78 0 95 3 91 14 -21 55 -29 139 -18 202 39
224 201 559 323 669 58 52 94 66 162 61 39 -3 55 -9 72 -29z m-671 -35 c31 -6
42 -13 49 -35 16 -43 -8 -58 -108 -68 -98 -10 -132 -24 -171 -71 -37 -43 -50
-78 -69 -173 -12 -59 -46 -449 -46 -527 0 -5 34 -8 75 -8 l75 0 0 -110 0 -110
-131 0 -132 0 5 -710 5 -710 -152 0 -152 0 5 710 5 710 -132 0 -131 0 0 110 0
110 260 0 c213 0 260 2 260 14 0 7 -27 187 -60 399 -33 211 -60 399 -60 416 0
25 4 31 23 32 31 2 51 -1 60 -10 4 -4 21 -113 37 -242 31 -249 47 -339 59
-339 5 0 11 64 14 143 13 336 106 473 322 475 28 1 68 -2 90 -6z m1556 -28 c8
-10 10 -36 6 -80 -8 -81 -54 -182 -162 -354 -96 -152 -136 -244 -143 -326 l-5
-62 338 69 c185 38 350 69 366 69 34 0 79 -39 79 -68 0 -33 -26 -44 -148 -63
-174 -28 -223 -39 -217 -50 4 -5 17 -9 30 -9 41 0 123 -36 170 -75 59 -48 91
-104 116 -203 19 -77 20 -104 16 -544 -4 -483 -6 -510 -50 -593 -27 -52 -83
-110 -134 -137 -97 -53 -145 -60 -440 -65 l-273 -5 -1 33 c-1 19 0 385 1 814
1 758 2 782 22 845 35 111 72 197 181 426 109 228 127 274 108 274 -6 0 -66
-22 -133 -49 -155 -62 -310 -111 -347 -111 -20 0 -37 9 -56 31 -14 17 -24 36
-22 42 1 5 41 18 88 28 88 18 162 42 319 104 125 50 239 83 261 78 10 -3 24
-12 30 -19z m1803 -844 c187 -27 294 -137 332 -341 12 -64 15 -161 12 -526 -3
-431 -4 -451 -26 -514 -46 -139 -122 -220 -247 -265 -73 -26 -308 -26 -385 0
-154 51 -242 169 -270 363 -16 110 -12 843 5 937 15 85 56 180 104 236 78 95
270 139 475 110z"/>
<path d="M3152 4493 c-53 -37 -139 -181 -227 -378 -88 -198 -110 -290 -81
-330 12 -17 17 -18 37 -6 72 39 286 407 324 556 20 80 20 161 -1 169 -21 8
-26 7 -52 -11z"/>
<path d="M3179 4028 c-101 -196 -247 -388 -295 -388 -12 0 -14 -101 -14 -600
0 -409 4 -616 11 -652 15 -69 66 -122 125 -132 55 -10 120 9 150 41 53 57 54
75 54 760 l0 633 50 0 c60 0 57 -12 34 188 -18 164 -35 244 -51 249 -6 2 -35
-41 -64 -99z"/>
<path d="M4030 2916 c0 -310 3 -584 6 -610 l7 -46 66 0 c133 0 201 41 221 134
8 34 10 201 8 511 -3 440 -4 461 -23 495 -33 56 -92 80 -197 80 l-88 0 0 -564z"/>
<path d="M5794 3480 c-35 -14 -72 -67 -83 -120 -15 -68 -15 -911 0 -979 6 -30
23 -64 43 -87 31 -35 37 -38 98 -42 88 -6 129 14 160 76 23 47 23 49 25 532 2
437 1 490 -15 535 -24 69 -64 95 -146 94 -34 0 -70 -4 -82 -9z"/>
</g>
</svg>
